<svg width="24" height="28" viewBox="0 0 24 28" fill="none" xmlns="http://www.w3.org/2000/svg">
  <path d="M22.9091 6.81818H18.2727V6.27273C18.2727 2.80909 15.4636 0 12 0C8.53636 0 5.72727 2.80909 5.72727 6.27273V6.81818H1.09091C0.4875 6.81818 0 7.30568 0 7.90909V26.1818C0 26.7852 0.4875 27.2727 1.09091 27.2727H22.9091C23.5125 27.2727 24 26.7852 24 26.1818V7.90909C24 7.30568 23.5125 6.81818 22.9091 6.81818ZM8.18182 6.27273C8.18182 4.1625 9.88977 2.45455 12 2.45455C14.1102 2.45455 15.8182 4.1625 15.8182 6.27273V6.81818H8.18182V6.27273ZM21.5455 24.8182H2.45455V9.27273H5.72727V12.2727C5.72727 12.4227 5.85 12.5455 6 12.5455H7.90909C8.05909 12.5455 8.18182 12.4227 8.18182 12.2727V9.27273H15.8182V12.2727C15.8182 12.4227 15.9409 12.5455 16.0909 12.5455H18C18.15 12.5455 18.2727 12.4227 18.2727 12.2727V9.27273H21.5455V24.8182Z" fill="#EBF9F7"/>
</svg>
