<svg width="40" height="40" viewBox="0 0 40 40" fill="none" xmlns="http://www.w3.org/2000/svg">
<path d="M6.66659 18.0834H6.41659V18.3334V28.3334C6.41659 28.8417 6.61852 29.3292 6.97796 29.6887C7.33741 30.0481 7.82492 30.25 8.33325 30.25H31.6666C32.1749 30.25 32.6624 30.0481 33.0219 29.6887C33.3813 29.3292 33.5833 28.8417 33.5833 28.3334V18.3334V18.0834H33.3333H6.66659ZM33.3333 15.25H33.5833V15V13.3334C33.5833 12.825 33.3813 12.3375 33.0219 11.9781C32.6624 11.6186 32.1749 11.4167 31.6666 11.4167H8.33325C7.82492 11.4167 7.33741 11.6186 6.97796 11.9781C6.61852 12.3375 6.41659 12.825 6.41659 13.3334V15V15.25H6.66659H33.3333ZM16.6666 24.75H11.6666C11.2909 24.75 10.9305 24.6008 10.6649 24.3351C10.3992 24.0694 10.2499 23.7091 10.2499 23.3334C10.2499 22.9577 10.3992 22.5973 10.6649 22.3316C10.9305 22.066 11.2909 21.9167 11.6666 21.9167H16.6666C17.0423 21.9167 17.4026 22.066 17.6683 22.3316C17.934 22.5973 18.0833 22.9577 18.0833 23.3334C18.0833 23.7091 17.934 24.0694 17.6683 24.3351C17.4026 24.6008 17.0423 24.75 16.6666 24.75ZM8.33325 8.58337H31.6666C32.9264 8.58337 34.1345 9.08382 35.0253 9.97462C35.9161 10.8654 36.4166 12.0736 36.4166 13.3334V28.3334C36.4166 29.5932 35.9161 30.8013 35.0253 31.6921C34.1345 32.5829 32.9264 33.0834 31.6666 33.0834H8.33325C7.07347 33.0834 5.86529 32.5829 4.97449 31.6921C4.0837 30.8013 3.58325 29.5932 3.58325 28.3334V13.3334C3.58325 12.0736 4.0837 10.8654 4.97449 9.97462C5.86529 9.08382 7.07347 8.58337 8.33325 8.58337Z" fill="#EBF9F7" stroke="#464B4D" stroke-width="0.5"/>
</svg>
