<svg width="120" height="79" viewBox="0 0 120 79" fill="none" xmlns="http://www.w3.org/2000/svg">
  <g clip-path="url(#clip0)">
    <path d="M72.865 41.9091L65.399 23.5716L53.6602 28.2789L57.7157 37.9745L72.865 41.9091Z" fill="#EBF9F7"/>
    <path d="M39.5947 33.9194L26.3086 39.2466L42.1027 78.0417L69.2365 67.1617L57.2524 38.5039L39.5947 33.9194Z" fill="#EBF9F7"/>
    <path d="M53.078 28.5128L40.5781 33.5267L56.9511 37.7775L53.078 28.5128Z" fill="#EBF9F7"/>
    <path d="M69.8218 66.9259L81.1915 62.3667L73.1591 42.6342L58.0195 38.7023L69.8218 66.9259Z" fill="#EBF9F7"/>
    <path d="M119.998 54.1479L72.8633 41.9094L73.1593 42.6346L119.839 54.7552L119.998 54.1479Z" fill="#EBF9F7"/>
    <path d="M0.159282 23.0318L0 23.6391L39.5954 33.9203L40.5765 33.5264L0.159282 23.0318Z" fill="#EBF9F7"/>
    <path d="M41.8341 0L41.25 0.240886L53.0749 28.5124L53.6586 28.279L41.8341 0Z" fill="#EBF9F7"/>
    <path d="M73.3617 77.0245L73.9458 76.7837L69.8248 66.9265L69.2383 67.1624L73.3617 77.0245Z" fill="#EBF9F7"/>
    <path d="M7.27734 21.8575L10.5641 9.48096L13.0924 10.146C14.1222 10.4137 14.7923 10.8737 15.1024 11.5262C15.4125 12.1786 15.4353 12.9984 15.1707 13.9854C15.0719 14.3782 14.925 14.7574 14.7333 15.1147C14.5584 15.4345 14.3108 15.7094 14.0102 15.9177C13.7073 16.1297 13.3411 16.2341 12.971 16.2138C13.266 16.3819 13.5184 16.6145 13.7093 16.8939C13.8915 17.1611 14.014 17.464 14.0683 17.7822C14.1218 18.1005 14.1362 18.4241 14.1113 18.7458C14.0817 19.0917 14.0217 19.4343 13.9318 19.7697C13.8327 20.1494 13.7068 20.5217 13.5551 20.8839C13.4179 21.2054 13.2413 21.5088 13.0292 21.7873C12.8372 22.0484 12.5959 22.27 12.3188 22.4397C12.0323 22.6048 11.7131 22.7059 11.3833 22.7359C10.9836 22.7699 10.5809 22.7316 10.195 22.6229L7.27734 21.8575ZM10.2658 15.1021L11.8839 15.5237C12.5126 15.691 13.0047 15.6157 13.3604 15.2979C13.716 14.98 13.9899 14.4555 14.1821 13.7244C14.3894 12.9415 14.3793 12.3417 14.1467 11.9176C13.9141 11.4936 13.373 11.1648 12.5134 10.9465L11.4515 10.6705L10.2658 15.1021ZM8.62493 21.2753L10.2278 21.6944C10.9628 21.8868 11.5215 21.8099 11.9041 21.4636C12.2859 21.1173 12.6044 20.4598 12.8623 19.4962C13.3174 17.7814 12.9112 16.7592 11.6437 16.4296L10.0256 16.0055L8.62493 21.2753Z" fill="#EBF9F7"/>
    <path d="M14.5859 23.7724L17.8727 11.3958L18.9902 11.6895L15.9259 23.1902L19.286 24.071L19.0534 24.9443L14.5859 23.7724Z" fill="#EBF9F7"/>
    <path d="M19.5352 25.0665L25.3148 13.3423L26.4829 13.6485L25.7017 26.68L24.612 26.3965L24.9053 22.936L22.0862 22.1982L20.6097 25.345L19.5352 25.0665ZM22.4705 21.3876L24.9836 22.0451L25.4893 15.0437L22.4705 21.3876Z" fill="#EBF9F7"/>
    <path d="M29.8335 27.9305C29.4138 27.8287 29.0163 27.6518 28.6604 27.4086C28.3685 27.2119 28.1228 26.9551 27.9398 26.6557C27.7715 26.3515 27.6658 26.0172 27.6289 25.6721C27.582 25.2954 27.582 24.9144 27.6289 24.5378C27.683 24.1141 27.7675 23.6948 27.8817 23.2831L29.1888 18.3645C29.2983 17.9366 29.4394 17.5172 29.611 17.1098C29.7584 16.7591 29.9504 16.4285 30.1824 16.1261C30.3871 15.8509 30.6451 15.6189 30.9408 15.4435C31.2466 15.2751 31.5858 15.1757 31.9344 15.1524C32.3603 15.1237 32.7879 15.1678 33.1987 15.2829C33.657 15.3898 34.0874 15.5907 34.4627 15.8727C34.7716 16.1107 35.0073 16.4297 35.1429 16.7936C35.2758 17.1852 35.3333 17.598 35.3122 18.0107C35.2853 18.5204 35.2005 19.0255 35.0593 19.5164L34.8573 20.2692L33.803 19.9932L33.995 19.268C34.0972 18.9023 34.1731 18.53 34.2227 18.1537C34.2585 17.8629 34.2481 17.5682 34.1924 17.2805C34.1446 17.0149 34.0072 16.7733 33.803 16.5954C33.5563 16.3958 33.2664 16.2558 32.956 16.1863C32.6281 16.088 32.2816 16.0682 31.9445 16.1286C31.6589 16.1876 31.4015 16.3405 31.2138 16.5628C31.0096 16.8005 30.8434 17.0679 30.721 17.3557C30.5655 17.7248 30.4379 18.1048 30.3392 18.4925L28.9486 23.7473C28.6924 24.7093 28.6427 25.4445 28.7994 25.9531C28.9562 26.4617 29.386 26.808 30.0889 26.992C30.3424 27.0648 30.6079 27.087 30.8701 27.0573C31.0822 27.032 31.2858 26.9582 31.4642 26.8415C31.6488 26.7073 31.8028 26.5364 31.9167 26.3396C32.0535 26.1201 32.1686 25.8882 32.2608 25.6469C32.3541 25.396 32.4454 25.1049 32.5387 24.7561L32.7536 23.9506L33.8055 24.2266L33.6261 24.9619C33.5214 25.3709 33.387 25.7717 33.2238 26.1614C33.0775 26.4968 32.8899 26.8129 32.6652 27.1024C32.472 27.3666 32.228 27.5901 31.9473 27.7599C31.6608 27.9211 31.3424 28.0179 31.0142 28.0435C30.6169 28.0756 30.2172 28.0373 29.8335 27.9305Z" fill="#EBF9F7"/>
    <path d="M34.3828 28.9548L37.6696 16.5782L38.7873 16.8719L37.0553 23.3964L41.9425 17.7L43.0093 17.9785L39.1614 22.6511L40.246 30.4881L39.1412 30.1995L38.1754 23.0476L36.7292 24.6486L35.5054 29.2459L34.3828 28.9548Z" fill="#EBF9F7"/>
    <path d="M76.4224 39.8425C75.4869 39.5984 74.8556 39.1191 74.5287 38.4046C74.2015 37.6903 74.1402 36.7929 74.3441 35.712L75.4134 35.6692C75.3604 36.0081 75.3249 36.3094 75.3099 36.5727C75.2915 36.8381 75.3001 37.1044 75.335 37.3684C75.3592 37.6077 75.4269 37.8406 75.5349 38.0559C75.6427 38.2515 75.7908 38.4225 75.9696 38.5576C76.1796 38.7174 76.4205 38.8318 76.6777 38.8941C77.7883 39.1817 78.5012 38.7283 78.8165 37.5339C78.8857 37.2836 78.9188 37.0252 78.9151 36.7658C78.9099 36.5104 78.8674 36.2568 78.7887 36.0133C78.7125 35.7682 78.6176 35.5292 78.5055 35.2981C78.3993 35.077 78.2527 34.7961 78.0757 34.4924L76.5359 31.8424C76.2843 31.4333 76.1181 30.9781 76.0474 30.5037C75.9766 30.0296 76.0027 29.5461 76.1239 29.082C76.3464 28.2456 76.757 27.66 77.3551 27.3254C77.6787 27.1538 78.0332 27.0478 78.3984 27.0138C78.7633 26.9797 79.1315 27.0183 79.4814 27.1272H79.5319C80.3915 27.3514 80.9817 27.7696 81.3019 28.3819C81.6221 28.9942 81.6812 29.8684 81.4789 31.0042H80.4674C80.6217 30.1511 80.6141 29.4785 80.4497 28.9967C80.36 28.7578 80.2091 28.5463 80.0119 28.383C79.8145 28.2197 79.5775 28.1103 79.3247 28.0657L79.2387 28.0431C78.796 27.9176 78.3228 27.9559 77.9064 28.151C77.7081 28.2705 77.5382 28.4306 77.4072 28.6205C77.2764 28.8105 77.188 29.0261 77.1479 29.2527C77.0582 29.5693 77.0392 29.9016 77.0922 30.2263C77.1696 30.5951 77.3098 30.9483 77.5069 31.2702L79.0415 33.8802C79.4089 34.4927 79.6902 35.152 79.8785 35.8399C80.0453 36.4658 80.0453 37.1239 79.8785 37.7498C79.6409 38.6496 79.2093 39.2795 78.5839 39.6394C78.2557 39.8152 77.8954 39.9239 77.5238 39.9588C77.1525 39.9938 76.7778 39.9543 76.4224 39.8425Z" fill="#EBF9F7"/>
    <path d="M85.2756 44.5737C84.8054 44.1574 84.3174 43.2163 83.8117 41.7435C83.6856 41.7268 83.5607 41.7025 83.4376 41.6706C82.9319 41.5531 82.4571 41.3308 82.0445 41.0181C81.6985 40.7484 81.4399 40.3837 81.3012 39.9692C81.1601 39.5432 81.0976 39.0953 81.1166 38.647C81.1414 38.109 81.2262 37.5757 81.3695 37.0561L82.7219 31.9196C82.8526 31.4034 83.0418 30.9033 83.2858 30.4293C83.4924 30.0376 83.7713 29.6879 84.1074 29.398C84.4383 29.1278 84.8384 28.9541 85.263 28.8961C86.2849 28.7887 87.311 29.0565 88.1476 29.6489C88.4902 29.9063 88.7531 30.2541 88.9062 30.6524C89.0559 31.0685 89.1254 31.5085 89.111 31.9497C89.0895 32.4808 89.0048 33.0071 88.8581 33.5181L87.5005 38.6719C87.3936 39.0931 87.2507 39.5046 87.0731 39.9015C86.9216 40.2425 86.7269 40.5629 86.4942 40.855C86.2815 41.1277 86.0124 41.3518 85.7054 41.5124C85.3916 41.6743 85.0469 41.7684 84.6939 41.7885C84.8271 42.1231 84.9857 42.4754 85.1693 42.8449C85.3007 43.1292 85.4654 43.397 85.6598 43.643L85.2756 44.5737ZM82.7752 40.3081C83.3253 40.7135 84.0116 40.8933 84.6915 40.8101C84.974 40.7584 85.2342 40.6227 85.4372 40.4211C85.6472 40.2064 85.818 39.9577 85.9429 39.6859C86.0987 39.3449 86.2224 38.9905 86.3121 38.627L87.7885 33.0262C87.888 32.6685 87.9541 32.3023 87.986 31.9324C88.0083 31.6357 87.9786 31.3378 87.8975 31.0515C87.8207 30.7794 87.6597 30.538 87.4371 30.3615C87.1662 30.1585 86.8552 30.014 86.5246 29.9375C86.1964 29.8417 85.8517 29.8169 85.5131 29.8647C85.2315 29.91 84.9713 30.0426 84.7699 30.2436C84.5599 30.4542 84.3887 30.6995 84.2641 30.9689C84.1092 31.3062 83.9865 31.6573 83.8977 32.0177L82.421 37.603C82.3206 37.9635 82.2538 38.3321 82.2214 38.7047C82.1972 39.0042 82.2254 39.3057 82.3047 39.5954C82.3858 39.8717 82.5499 40.1171 82.7752 40.2981V40.3081Z" fill="#EBF9F7"/>
    <path d="M91.2287 43.6939C90.8068 43.5897 90.4043 43.4203 90.0354 43.1919C89.7391 43.0142 89.4847 42.7755 89.2894 42.4919C89.1143 42.2192 88.9983 41.913 88.9481 41.5935C88.8902 41.2495 88.8792 40.899 88.9153 40.5522C88.9597 40.1504 89.035 39.7529 89.1403 39.3626L91.5219 30.3612L92.5989 30.6397L90.2172 39.6736C90.1422 39.95 90.0856 40.2309 90.048 40.5145C90.0183 40.7645 90.0183 41.0171 90.048 41.2674C90.07 41.4924 90.137 41.7108 90.2451 41.9097C90.3623 42.1095 90.5231 42.2811 90.7153 42.4117C90.951 42.5714 91.214 42.6871 91.4916 42.7527C91.8143 42.8466 92.1541 42.8654 92.4853 42.808C92.7636 42.7494 93.018 42.6094 93.216 42.4065C93.4217 42.1933 93.5922 41.9495 93.7214 41.6837C93.8754 41.3664 93.9963 41.0342 94.0833 40.6925L96.4621 31.6586L97.5317 31.9346L95.1602 40.9336C95.0607 41.3248 94.9297 41.7074 94.7684 42.0779C94.6248 42.3992 94.4378 42.6999 94.2121 42.9711C94.0046 43.2335 93.7413 43.4467 93.441 43.5961C93.1407 43.7452 92.811 43.8266 92.4752 43.8345C92.0549 43.8536 91.634 43.8062 91.2287 43.6939Z" fill="#EBF9F7"/>
    <path d="M95.582 44.665L101.339 32.9306L102.507 33.2343L101.749 46.2685L100.659 45.9848L100.947 42.5242L98.1256 41.7917L96.6565 44.9459L95.582 44.665ZM98.5098 40.9812L101.023 41.6335L101.528 34.6298L98.5098 40.9812Z" fill="#EBF9F7"/>
    <path d="M103.168 46.6254L106.44 34.2439L109.125 34.9414C110.175 35.2126 110.855 35.6724 111.165 36.3217C111.475 36.9707 111.496 37.8074 111.228 38.8311C110.778 40.5376 109.973 41.3682 108.814 41.3229L108.975 48.1311L107.878 47.8474L107.749 41.3105L105.899 40.8312L104.286 46.9242L103.168 46.6254ZM106.116 39.9703L107.621 40.362C108.333 40.5452 108.884 40.4923 109.254 40.1987C109.623 39.9053 109.924 39.3556 110.136 38.5502C110.348 37.7445 110.366 37.1423 110.192 36.7208C110.017 36.2993 109.575 35.9928 108.859 35.8073L107.32 35.4082L106.116 39.9703Z" fill="#EBF9F7"/>
    <path d="M110.645 48.5644L113.906 36.1826L118.174 37.292L117.939 38.1879L114.786 37.3697L113.565 42.0071L116.144 42.677L115.916 43.5429L113.337 42.8729L112.005 47.9822L115.19 48.8077L114.96 49.6835L110.645 48.5644Z" fill="#EBF9F7"/>
  </g>
  <defs>
    <clipPath id="clip0">
      <rect width="120" height="78.042" fill="white"/>
    </clipPath>
  </defs>
</svg>
