<svg width="28" height="30" viewBox="0 0 28 30" fill="none" xmlns="http://www.w3.org/2000/svg">
  <path d="M14.6638 0.0253125C16.2997 0 17.9263 0.015 19.5509 0C19.6494 1.91344 20.3375 3.8625 21.7381 5.21531C23.1359 6.60188 25.1131 7.23656 27.0369 7.45125V12.4847C25.2341 12.4256 23.4228 12.0506 21.7869 11.2744C21.0744 10.9519 20.4106 10.5366 19.7609 10.1119C19.7525 13.7644 19.7759 17.4122 19.7375 21.0497C19.64 22.7972 19.0634 24.5363 18.0472 25.9762C16.4122 28.3734 13.5744 29.9362 10.6597 29.985C8.87188 30.0872 7.08595 29.5997 5.56251 28.7016C3.03782 27.2128 1.26126 24.4875 1.00251 21.5625C0.969916 20.943 0.964911 20.3224 0.987509 19.7025C1.21251 17.3241 2.38907 15.0487 4.21532 13.5009C6.28532 11.6981 9.18501 10.8394 11.9 11.3475C11.9253 13.1991 11.8513 15.0487 11.8513 16.9003C10.6109 16.4991 9.16157 16.6116 8.07782 17.3644C7.28492 17.8867 6.68573 18.6552 6.37251 19.5516C6.11376 20.1853 6.18782 20.8894 6.20282 21.5625C6.50001 23.6138 8.47251 25.3378 10.5781 25.1512C11.9741 25.1362 13.3119 24.3263 14.0394 23.1403C14.2747 22.725 14.5381 22.3003 14.5522 21.8119C14.675 19.5759 14.6263 17.3494 14.6413 15.1134C14.6516 10.0744 14.6263 5.04937 14.6647 0.02625L14.6638 0.0253125Z" fill="#EBF9F7"/>
</svg>
