<svg width="16" height="16" viewBox="0 0 16 16" fill="none" xmlns="http://www.w3.org/2000/svg">
<rect width="16" height="16" fill="white"/>
<g clip-path="url(#clip0)">
<path d="M9.71445 7.90693L8.71899 5.32227L7.15381 5.98576L7.69454 7.35235L9.71445 7.90693Z" fill="#1D1F22"/>
<path d="M5.28124 6.78076L3.50977 7.53163L5.61565 12.9998L9.23348 11.4663L7.63561 7.42694L5.28124 6.78076Z" fill="#1D1F22"/>
<path d="M7.07534 6.01904L5.40869 6.72576L7.59175 7.32491L7.07534 6.01904Z" fill="#1D1F22"/>
<path d="M9.31143 11.4332L10.8274 10.7906L9.75641 8.00927L7.73779 7.45508L9.31143 11.4332Z" fill="#1D1F22"/>
<path d="M16.001 9.63224L9.71631 7.90723L9.75578 8.00945L15.9797 9.71785L16.001 9.63224Z" fill="#1D1F22"/>
<path d="M0.0212376 5.24609L0 5.33169L5.27939 6.78082L5.4102 6.7253L0.0212376 5.24609Z" fill="#1D1F22"/>
<path d="M5.57934 2L5.50146 2.03395L7.07811 6.01881L7.15595 5.98592L5.57934 2Z" fill="#1D1F22"/>
<path d="M9.78124 12.8564L9.85912 12.8225L9.30965 11.4331L9.23145 11.4664L9.78124 12.8564Z" fill="#1D1F22"/>
<path d="M0.969238 5.0809L1.40748 3.33643L1.74458 3.43016C1.88189 3.46789 1.97123 3.53273 2.01258 3.6247C2.05393 3.71666 2.05696 3.8322 2.02168 3.97133C2.00851 4.02669 1.98893 4.08014 1.96336 4.1305C1.94004 4.17557 1.90703 4.21433 1.86695 4.24368C1.82656 4.27357 1.77774 4.28827 1.7284 4.28542C1.76772 4.30912 1.80138 4.3419 1.82683 4.38127C1.85113 4.41894 1.86745 4.46164 1.8747 4.50649C1.88183 4.55135 1.88376 4.59696 1.88043 4.64231C1.87649 4.69105 1.86848 4.73934 1.8565 4.78662C1.84328 4.84014 1.8265 4.89262 1.80627 4.94366C1.78799 4.98898 1.76443 5.03175 1.73615 5.071C1.71055 5.10781 1.67838 5.13904 1.64143 5.16296C1.60324 5.18623 1.56067 5.20047 1.5167 5.2047C1.4634 5.2095 1.40972 5.2041 1.35826 5.18878L0.969238 5.0809ZM1.3677 4.12873L1.58344 4.18815C1.66727 4.21173 1.73289 4.20112 1.78031 4.15632C1.82773 4.11151 1.86425 4.03759 1.88987 3.93454C1.91751 3.82419 1.91616 3.73965 1.88515 3.67987C1.85414 3.6201 1.782 3.57376 1.66738 3.54299L1.5258 3.50409L1.3677 4.12873ZM1.14892 4.99884L1.36264 5.05791C1.46063 5.08503 1.53512 5.07418 1.58614 5.02537C1.63704 4.97656 1.67952 4.88389 1.7139 4.74807C1.77458 4.50637 1.72042 4.36229 1.55142 4.31584L1.33567 4.25606L1.14892 4.99884Z" fill="#1D1F22"/>
<path d="M1.94629 5.35092L2.38453 3.60645L2.53353 3.64783L2.12495 5.26886L2.57297 5.39301L2.54195 5.5161L1.94629 5.35092Z" fill="#1D1F22"/>
<path d="M2.60596 5.53288L3.37658 3.88037L3.53232 3.92352L3.42816 5.76032L3.28286 5.72035L3.32197 5.23259L2.9461 5.1286L2.74923 5.57215L2.60596 5.53288ZM2.99734 5.01435L3.33242 5.10702L3.39984 4.12018L2.99734 5.01435Z" fill="#1D1F22"/>
<path d="M3.97832 5.93655C3.92236 5.92219 3.86936 5.89726 3.82191 5.86298C3.78299 5.83526 3.75023 5.79906 3.72583 5.75687C3.70339 5.71399 3.6893 5.66686 3.68437 5.61822C3.67813 5.56512 3.67813 5.51143 3.68437 5.45834C3.69158 5.39862 3.70285 5.33952 3.71808 5.28149L3.89236 4.58822C3.90696 4.5279 3.92577 4.46879 3.94866 4.41137C3.96831 4.36193 3.99391 4.31533 4.02484 4.27272C4.05214 4.23393 4.08653 4.20123 4.12596 4.17651C4.16673 4.15277 4.21196 4.13876 4.25845 4.13548C4.31522 4.13143 4.37224 4.13764 4.42702 4.15387C4.48812 4.16894 4.54551 4.19725 4.59555 4.23699C4.63673 4.27054 4.66816 4.31551 4.68624 4.3668C4.70396 4.42199 4.71163 4.48019 4.70881 4.53835C4.70522 4.61019 4.69392 4.68138 4.6751 4.75057L4.64816 4.85668L4.50759 4.81778L4.53318 4.71556C4.54681 4.66402 4.55694 4.61154 4.56355 4.55851C4.56832 4.51751 4.56694 4.47598 4.55951 4.43542C4.55314 4.39799 4.53481 4.36394 4.50759 4.33886C4.47469 4.31073 4.43604 4.29099 4.39465 4.28121C4.35094 4.26734 4.30473 4.26455 4.25979 4.27307C4.22171 4.28138 4.18739 4.30294 4.16236 4.33426C4.13514 4.36777 4.11298 4.40546 4.09665 4.44603C4.07592 4.49805 4.05891 4.55161 4.04574 4.60626L3.86034 5.34692C3.82618 5.48251 3.81955 5.58615 3.84045 5.65783C3.86135 5.72951 3.91865 5.77832 4.01237 5.80426C4.04617 5.81453 4.08158 5.81765 4.11653 5.81346C4.14481 5.80991 4.17196 5.79949 4.19575 5.78304C4.22036 5.76414 4.2409 5.74004 4.25608 5.7123C4.27432 5.68137 4.28967 5.64868 4.30196 5.61468C4.31441 5.57931 4.32657 5.53828 4.33902 5.48911L4.36767 5.37557L4.50792 5.41448L4.484 5.51812C4.47004 5.57576 4.45212 5.63226 4.43036 5.68719C4.41085 5.73446 4.38583 5.77902 4.35588 5.81983C4.33012 5.85706 4.29759 5.88857 4.26016 5.9125C4.22196 5.93522 4.17951 5.94886 4.13575 5.95246C4.08277 5.95699 4.02949 5.9516 3.97832 5.93655Z" fill="#1D1F22"/>
<path d="M4.58545 6.08139L5.02369 4.33691L5.17271 4.3783L4.94178 5.29794L5.59341 4.49502L5.73565 4.53428L5.22259 5.19288L5.3672 6.2975L5.2199 6.25683L5.09112 5.24877L4.89831 5.47443L4.73512 6.12242L4.58545 6.08139Z" fill="#1D1F22"/>
<path d="M10.1897 7.61557C10.065 7.58115 9.98085 7.5136 9.93726 7.41288C9.89362 7.31221 9.88546 7.18572 9.91264 7.03337L10.0552 7.02734C10.0482 7.07511 10.0434 7.11757 10.0414 7.15468C10.039 7.19209 10.0401 7.22963 10.0448 7.26683C10.048 7.30056 10.057 7.33339 10.0714 7.36374C10.0858 7.39131 10.1055 7.41541 10.1294 7.43446C10.1574 7.45697 10.1895 7.47311 10.2238 7.48189C10.3719 7.52242 10.4669 7.45851 10.509 7.29016C10.5182 7.25489 10.5226 7.21846 10.5221 7.18191C10.5214 7.14591 10.5157 7.11016 10.5053 7.07583C10.4951 7.04129 10.4824 7.0076 10.4675 6.97503C10.4533 6.94387 10.4338 6.90427 10.4102 6.86147L10.2049 6.48795C10.1713 6.43029 10.1492 6.36612 10.1397 6.29926C10.1303 6.23243 10.1338 6.16428 10.1499 6.09888C10.1796 5.98098 10.2344 5.89845 10.3141 5.85128C10.3573 5.82709 10.4045 5.81215 10.4532 5.80736C10.5019 5.80256 10.551 5.80799 10.5976 5.82334H10.6044C10.719 5.85494 10.7977 5.91389 10.8404 6.00019C10.883 6.0865 10.8909 6.20971 10.8639 6.3698H10.7291C10.7497 6.24956 10.7486 6.15476 10.7267 6.08685C10.7148 6.05318 10.6946 6.02336 10.6684 6.00034C10.642 5.97733 10.6104 5.96192 10.5767 5.95563L10.5653 5.95244C10.5062 5.93475 10.4431 5.94015 10.3876 5.96765C10.3612 5.98449 10.3385 6.00705 10.3211 6.03383C10.3036 6.06061 10.2918 6.09099 10.2865 6.12293C10.2745 6.16756 10.272 6.2144 10.2791 6.26017C10.2894 6.31215 10.3081 6.36193 10.3344 6.4073L10.539 6.77517C10.5879 6.86151 10.6255 6.95444 10.6506 7.05139C10.6728 7.13961 10.6728 7.23237 10.6506 7.3206C10.6189 7.44743 10.5613 7.53621 10.4779 7.58693C10.4342 7.61171 10.3862 7.62704 10.3366 7.63196C10.2871 7.63688 10.2371 7.63132 10.1897 7.61557Z" fill="#1D1F22"/>
<path d="M11.3714 8.28285C11.3087 8.22416 11.2436 8.09152 11.1762 7.88393C11.1594 7.88158 11.1427 7.87816 11.1263 7.87366C11.0589 7.8571 10.9956 7.82577 10.9406 7.78168C10.8944 7.74367 10.86 7.69227 10.8415 7.63384C10.8226 7.57379 10.8143 7.51066 10.8168 7.44749C10.8202 7.37164 10.8315 7.29648 10.8506 7.22325L11.0309 6.49926C11.0483 6.4265 11.0735 6.356 11.1061 6.28919C11.1336 6.23399 11.1708 6.18469 11.2156 6.14383C11.2597 6.10575 11.3131 6.08127 11.3697 6.0731C11.5059 6.05796 11.6428 6.0957 11.7543 6.1792C11.8 6.21548 11.8351 6.2645 11.8555 6.32065C11.8754 6.37929 11.8847 6.44131 11.8828 6.5035C11.8799 6.57836 11.8686 6.65253 11.8491 6.72457L11.668 7.451C11.6538 7.51036 11.6347 7.56836 11.6111 7.6243C11.5908 7.67237 11.5649 7.71752 11.5339 7.7587C11.5055 7.79713 11.4696 7.82872 11.4287 7.85136C11.3868 7.87418 11.3409 7.88744 11.2938 7.89027C11.3116 7.93744 11.3327 7.98709 11.3572 8.03918C11.3747 8.07924 11.3967 8.11699 11.4226 8.15166L11.3714 8.28285ZM11.038 7.68161C11.1113 7.73875 11.2028 7.76409 11.2935 7.75236C11.3312 7.74509 11.3659 7.72595 11.3929 7.69753C11.4209 7.66727 11.4437 7.63222 11.4604 7.59391C11.4811 7.54584 11.4976 7.49589 11.5096 7.44466L11.7064 6.65523C11.7197 6.60481 11.7285 6.55319 11.7328 6.50106C11.7357 6.45924 11.7318 6.41725 11.721 6.37689C11.7107 6.33854 11.6893 6.30451 11.6596 6.27964C11.6235 6.25102 11.582 6.23066 11.5379 6.21987C11.4942 6.20637 11.4482 6.20287 11.4031 6.20961C11.3655 6.21599 11.3308 6.23469 11.304 6.26302C11.276 6.2927 11.2531 6.32728 11.2365 6.36525C11.2159 6.4128 11.1995 6.46228 11.1877 6.51308L10.9908 7.30033C10.9774 7.35114 10.9685 7.4031 10.9642 7.45562C10.9609 7.49782 10.9647 7.54032 10.9753 7.58116C10.9861 7.6201 11.008 7.65469 11.038 7.6802V7.68161Z" fill="#1D1F22"/>
<path d="M12.1647 8.15854C12.1085 8.14386 12.0548 8.11997 12.0056 8.08778C11.9661 8.06274 11.9322 8.0291 11.9062 7.98912C11.8828 7.95068 11.8673 7.90753 11.8607 7.8625C11.8529 7.814 11.8515 7.7646 11.8563 7.71572C11.8622 7.65909 11.8722 7.60305 11.8863 7.54805L12.2038 6.2793L12.3474 6.31855L12.0299 7.59188C12.0199 7.63084 12.0123 7.67043 12.0073 7.71041C12.0033 7.74564 12.0033 7.78125 12.0073 7.81652C12.0102 7.84824 12.0192 7.87902 12.0336 7.90706C12.0492 7.93522 12.0707 7.95941 12.0963 7.97782C12.1277 8.00033 12.1628 8.01664 12.1998 8.02589C12.2428 8.03911 12.2881 8.04177 12.3323 8.03368C12.3694 8.02541 12.4033 8.00568 12.4297 7.97709C12.4571 7.94704 12.4799 7.91267 12.4971 7.87521C12.5176 7.83048 12.5338 7.78365 12.5453 7.73549L12.8625 6.46217L13.0051 6.50108L12.6889 7.76948C12.6757 7.82461 12.6582 7.87855 12.6367 7.93077C12.6176 7.97606 12.5926 8.01844 12.5625 8.05666C12.5349 8.09365 12.4998 8.1237 12.4597 8.14476C12.4197 8.16577 12.3757 8.17724 12.3309 8.17836C12.2749 8.18105 12.2188 8.17438 12.1647 8.15854Z" fill="#1D1F22"/>
<path d="M12.7446 8.29556L13.5122 6.6416L13.6679 6.68441L13.5668 8.52157L13.4215 8.48159L13.46 7.99382L13.0838 7.89058L12.8879 8.33516L12.7446 8.29556ZM13.135 7.77633L13.4701 7.86828L13.5375 6.8811L13.135 7.77633Z" fill="#1D1F22"/>
<path d="M13.7563 8.57183L14.1926 6.82666L14.5506 6.92498C14.6906 6.96321 14.7813 7.02802 14.8226 7.11953C14.864 7.21101 14.8668 7.32894 14.831 7.47323C14.771 7.71376 14.6637 7.83083 14.5091 7.82445L14.5307 8.78406L14.3844 8.74408L14.3672 7.8227L14.1204 7.75515L13.9054 8.61395L13.7563 8.57183ZM14.1494 7.6338L14.35 7.68902C14.4451 7.71483 14.5186 7.70738 14.5678 7.66599C14.617 7.62464 14.6571 7.54716 14.6854 7.43364C14.7137 7.32008 14.7161 7.23519 14.6928 7.17578C14.6696 7.11637 14.6106 7.07318 14.5152 7.04702L14.3099 6.99078L14.1494 7.6338Z" fill="#1D1F22"/>
<path d="M14.7515 8.84531L15.1863 7.1001L15.7554 7.25647L15.724 7.38274L15.3036 7.26742L15.1408 7.92106L15.4847 8.01549L15.4543 8.13753L15.1105 8.0431L14.9328 8.76325L15.3576 8.8796L15.3269 9.00305L14.7515 8.84531Z" fill="#1D1F22"/>
</g>
<defs>
<clipPath id="clip0">
<rect width="16" height="11" fill="white" transform="translate(0 2)"/>
</clipPath>
</defs>
</svg>
